<svg width="174" height="50" viewBox="0 0 627 145" fill="none" xmlns="http://www.w3.org/2000/svg">
<path d="M82.744 0.391562L121.171 28.0927L160.472 54.66L144.668 97.971L130.268 141.723L82.0736 140.79L33.8724 141.263L19.8909 97.3752L4.50088 53.9152L44.0543 27.7245L82.744 0.391562Z" fill="#FF9900"/>
<path d="M97.0079 65.027C96.5988 61.5725 94.9397 58.8907 92.0306 56.9816C89.1215 55.0725 85.5533 54.1179 81.3261 54.1179C78.2352 54.1179 75.5306 54.6179 73.2124 55.6179C70.917 56.6179 69.1215 57.9929 67.8261 59.7429C66.5533 61.4929 65.917 63.4816 65.917 65.7088C65.917 67.5725 66.3602 69.1748 67.2465 70.5157C68.1556 71.8339 69.3147 72.9361 70.7238 73.8225C72.1329 74.6861 73.6102 75.402 75.1556 75.9702C76.7011 76.5157 78.1215 76.9589 79.417 77.2998L86.5079 79.2089C88.3261 79.6861 90.3488 80.3452 92.5761 81.1861C94.8261 82.027 96.9738 83.1748 99.0193 84.6293C101.087 86.0611 102.792 87.902 104.133 90.152C105.474 92.402 106.144 95.1634 106.144 98.4361C106.144 102.209 105.156 105.618 103.178 108.663C101.224 111.709 98.3602 114.129 94.5874 115.925C90.8374 117.72 86.2806 118.618 80.917 118.618C75.917 118.618 71.5874 117.811 67.9283 116.197C64.292 114.584 61.4283 112.334 59.3374 109.447C57.2692 106.561 56.0988 103.209 55.8261 99.3907H64.5533C64.7806 102.027 65.667 104.209 67.2124 105.936C68.7806 107.641 70.7579 108.913 73.1442 109.754C75.5533 110.572 78.1442 110.982 80.917 110.982C84.1442 110.982 87.042 110.459 89.6102 109.413C92.1783 108.345 94.2124 106.868 95.7124 104.982C97.2124 103.072 97.9624 100.845 97.9624 98.2998C97.9624 95.9816 97.3147 94.0952 96.0193 92.6407C94.7238 91.1861 93.0192 90.0043 90.9056 89.0952C88.792 88.1861 86.5079 87.3907 84.0533 86.7089L75.4624 84.2543C70.0079 82.6861 65.6897 80.4475 62.5079 77.5384C59.3261 74.6293 57.7352 70.8225 57.7352 66.1179C57.7352 62.2088 58.792 58.7998 60.9056 55.8907C63.042 52.9589 65.9056 50.6861 69.4965 49.0725C73.1102 47.4361 77.1442 46.6179 81.5988 46.6179C86.0988 46.6179 90.0988 47.4248 93.5988 49.0384C97.0988 50.6293 99.8715 52.8111 101.917 55.5838C103.985 58.3566 105.076 61.5043 105.19 65.027H97.0079Z" fill="url(#paint0_linear_1_6)"/>
<path d="M215.008 65.027C214.599 61.5725 212.94 58.8907 210.031 56.9816C207.122 55.0725 203.553 54.1179 199.326 54.1179C196.235 54.1179 193.531 54.6179 191.212 55.6179C188.917 56.6179 187.122 57.9929 185.826 59.7429C184.553 61.4929 183.917 63.4816 183.917 65.7088C183.917 67.5725 184.36 69.1748 185.247 70.5157C186.156 71.8339 187.315 72.9361 188.724 73.8225C190.133 74.6861 191.61 75.402 193.156 75.9702C194.701 76.5157 196.122 76.9589 197.417 77.2998L204.508 79.2089C206.326 79.6861 208.349 80.3452 210.576 81.1861C212.826 82.027 214.974 83.1748 217.019 84.6293C219.087 86.0611 220.792 87.902 222.133 90.152C223.474 92.402 224.144 95.1634 224.144 98.4361C224.144 102.209 223.156 105.618 221.178 108.663C219.224 111.709 216.36 114.129 212.587 115.925C208.837 117.72 204.281 118.618 198.917 118.618C193.917 118.618 189.587 117.811 185.928 116.197C182.292 114.584 179.428 112.334 177.337 109.447C175.269 106.561 174.099 103.209 173.826 99.3907H182.553C182.781 102.027 183.667 104.209 185.212 105.936C186.781 107.641 188.758 108.913 191.144 109.754C193.553 110.572 196.144 110.982 198.917 110.982C202.144 110.982 205.042 110.459 207.61 109.413C210.178 108.345 212.212 106.868 213.712 104.982C215.212 103.072 215.962 100.845 215.962 98.2998C215.962 95.9816 215.315 94.0952 214.019 92.6407C212.724 91.1861 211.019 90.0043 208.906 89.0952C206.792 88.1861 204.508 87.3907 202.053 86.7089L193.462 84.2543C188.008 82.6861 183.69 80.4475 180.508 77.5384C177.326 74.6293 175.735 70.8225 175.735 66.1179C175.735 62.2088 176.792 58.7998 178.906 55.8907C181.042 52.9589 183.906 50.6861 187.497 49.0725C191.11 47.4361 195.144 46.6179 199.599 46.6179C204.099 46.6179 208.099 47.4248 211.599 49.0384C215.099 50.6293 217.872 52.8111 219.917 55.5838C221.985 58.3566 223.076 61.5043 223.19 65.027H215.008ZM244.999 85.8907V117.391H236.954V47.5725H244.999V73.2089H245.681C246.908 70.5043 248.749 68.3566 251.204 66.7657C253.681 65.152 256.977 64.3452 261.09 64.3452C264.658 64.3452 267.783 65.0611 270.465 66.4929C273.147 67.902 275.227 70.0725 276.704 73.0043C278.204 75.9134 278.954 79.6179 278.954 84.1179V117.391H270.908V84.6634C270.908 80.5043 269.829 77.2884 267.67 75.0157C265.533 72.7202 262.568 71.5725 258.772 71.5725C256.136 71.5725 253.772 72.1293 251.681 73.2429C249.613 74.3566 247.977 75.9816 246.772 78.1179C245.59 80.2543 244.999 82.8452 244.999 85.8907ZM314.945 118.482C310.218 118.482 306.07 117.357 302.502 115.107C298.957 112.857 296.184 109.709 294.184 105.663C292.207 101.618 291.218 96.8907 291.218 91.4816C291.218 86.027 292.207 81.2657 294.184 77.1975C296.184 73.1293 298.957 69.9702 302.502 67.7202C306.07 65.4702 310.218 64.3452 314.945 64.3452C319.673 64.3452 323.809 65.4702 327.354 67.7202C330.923 69.9702 333.695 73.1293 335.673 77.1975C337.673 81.2657 338.673 86.027 338.673 91.4816C338.673 96.8907 337.673 101.618 335.673 105.663C333.695 109.709 330.923 112.857 327.354 115.107C323.809 117.357 319.673 118.482 314.945 118.482ZM314.945 111.254C318.536 111.254 321.491 110.334 323.809 108.493C326.127 106.652 327.843 104.232 328.957 101.232C330.07 98.2316 330.627 94.9816 330.627 91.4816C330.627 87.9816 330.07 84.7202 328.957 81.6975C327.843 78.6748 326.127 76.2316 323.809 74.3679C321.491 72.5043 318.536 71.5725 314.945 71.5725C311.354 71.5725 308.4 72.5043 306.082 74.3679C303.764 76.2316 302.048 78.6748 300.934 81.6975C299.82 84.7202 299.264 87.9816 299.264 91.4816C299.264 94.9816 299.82 98.2316 300.934 101.232C302.048 104.232 303.764 106.652 306.082 108.493C308.4 110.334 311.354 111.254 314.945 111.254ZM350.954 137.027V65.027H358.727V73.3452H359.681C360.272 72.4361 361.09 71.277 362.136 69.8679C363.204 68.4361 364.727 67.1634 366.704 66.0498C368.704 64.9134 371.408 64.3452 374.818 64.3452C379.227 64.3452 383.113 65.4475 386.477 67.652C389.84 69.8566 392.465 72.9816 394.352 77.027C396.238 81.0725 397.181 85.8452 397.181 91.3452C397.181 96.8907 396.238 101.697 394.352 105.766C392.465 109.811 389.852 112.947 386.511 115.175C383.17 117.379 379.318 118.482 374.954 118.482C371.59 118.482 368.897 117.925 366.874 116.811C364.852 115.675 363.295 114.391 362.204 112.959C361.113 111.504 360.272 110.3 359.681 109.345H358.999V137.027H350.954ZM358.863 91.2089C358.863 95.1634 359.443 98.652 360.602 101.675C361.761 104.675 363.454 107.027 365.681 108.732C367.908 110.413 370.636 111.254 373.863 111.254C377.227 111.254 380.033 110.368 382.283 108.595C384.556 106.8 386.261 104.391 387.397 101.368C388.556 98.3225 389.136 94.9361 389.136 91.2089C389.136 87.527 388.568 84.2089 387.431 81.2543C386.318 78.277 384.624 75.9248 382.352 74.1975C380.102 72.4475 377.272 71.5725 373.863 71.5725C370.59 71.5725 367.84 72.402 365.613 74.0611C363.386 75.6975 361.704 77.9929 360.568 80.9475C359.431 83.8793 358.863 87.2998 358.863 91.2089ZM409.454 117.391V65.027H417.499V117.391H409.454ZM413.545 56.2998C411.977 56.2998 410.624 55.7657 409.488 54.6975C408.374 53.6293 407.818 52.3452 407.818 50.8452C407.818 49.3452 408.374 48.0611 409.488 46.9929C410.624 45.9248 411.977 45.3907 413.545 45.3907C415.113 45.3907 416.454 45.9248 417.568 46.9929C418.704 48.0611 419.272 49.3452 419.272 50.8452C419.272 52.3452 418.704 53.6293 417.568 54.6975C416.454 55.7657 415.113 56.2998 413.545 56.2998Z" fill="white"/>
<path d="M433.326 117.391V47.5725H441.781V109.891H474.235V117.391H433.326ZM501.644 118.618C498.326 118.618 495.315 117.993 492.61 116.743C489.906 115.47 487.758 113.641 486.167 111.254C484.576 108.845 483.781 105.936 483.781 102.527C483.781 99.527 484.372 97.0952 485.553 95.2316C486.735 93.3452 488.315 91.8679 490.292 90.7998C492.269 89.7316 494.451 88.9361 496.837 88.4134C499.247 87.8679 501.667 87.4361 504.099 87.1179C507.281 86.7089 509.86 86.402 511.837 86.1975C513.837 85.9702 515.292 85.5952 516.201 85.0725C517.133 84.5498 517.599 83.6407 517.599 82.3452V82.0725C517.599 78.7089 516.678 76.0952 514.837 74.2316C513.019 72.3679 510.258 71.4361 506.553 71.4361C502.712 71.4361 499.701 72.277 497.519 73.9589C495.337 75.6407 493.803 77.4361 492.917 79.3452L485.281 76.6179C486.644 73.4361 488.462 70.9589 490.735 69.1861C493.031 67.3907 495.531 66.1407 498.235 65.4361C500.962 64.7089 503.644 64.3452 506.281 64.3452C507.962 64.3452 509.894 64.5498 512.076 64.9588C514.281 65.3452 516.406 66.152 518.451 67.3793C520.519 68.6066 522.235 70.4589 523.599 72.9361C524.962 75.4134 525.644 78.7316 525.644 82.8907V117.391H517.599V110.3H517.19C516.644 111.436 515.735 112.652 514.462 113.947C513.19 115.243 511.497 116.345 509.383 117.254C507.269 118.163 504.69 118.618 501.644 118.618ZM502.872 111.391C506.053 111.391 508.735 110.766 510.917 109.516C513.122 108.266 514.781 106.652 515.894 104.675C517.031 102.697 517.599 100.618 517.599 98.4361V91.0725C517.258 91.4816 516.508 91.8566 515.349 92.1975C514.212 92.5157 512.894 92.7998 511.394 93.0498C509.917 93.277 508.474 93.4816 507.065 93.6634C505.678 93.8225 504.553 93.9589 503.69 94.0725C501.599 94.3452 499.644 94.7884 497.826 95.402C496.031 95.9929 494.576 96.8907 493.462 98.0952C492.372 99.277 491.826 100.891 491.826 102.936C491.826 105.732 492.86 107.845 494.928 109.277C497.019 110.686 499.667 111.391 502.872 111.391ZM563.102 65.027V71.8452H535.965V65.027H563.102ZM543.874 52.4816H551.92V102.391C551.92 104.663 552.249 106.368 552.908 107.504C553.59 108.618 554.454 109.368 555.499 109.754C556.568 110.118 557.693 110.3 558.874 110.3C559.761 110.3 560.488 110.254 561.056 110.163C561.624 110.05 562.079 109.959 562.42 109.891L564.056 117.118C563.511 117.322 562.749 117.527 561.772 117.732C560.795 117.959 559.556 118.072 558.056 118.072C555.783 118.072 553.556 117.584 551.374 116.607C549.215 115.629 547.42 114.141 545.988 112.141C544.579 110.141 543.874 107.618 543.874 104.572V52.4816ZM595.914 118.482C591.187 118.482 587.039 117.357 583.471 115.107C579.925 112.857 577.153 109.709 575.153 105.663C573.175 101.618 572.187 96.8907 572.187 91.4816C572.187 86.027 573.175 81.2657 575.153 77.1975C577.153 73.1293 579.925 69.9702 583.471 67.7202C587.039 65.4702 591.187 64.3452 595.914 64.3452C600.641 64.3452 604.778 65.4702 608.323 67.7202C611.891 69.9702 614.664 73.1293 616.641 77.1975C618.641 81.2657 619.641 86.027 619.641 91.4816C619.641 96.8907 618.641 101.618 616.641 105.663C614.664 109.709 611.891 112.857 608.323 115.107C604.778 117.357 600.641 118.482 595.914 118.482ZM595.914 111.254C599.505 111.254 602.46 110.334 604.778 108.493C607.096 106.652 608.812 104.232 609.926 101.232C611.039 98.2316 611.596 94.9816 611.596 91.4816C611.596 87.9816 611.039 84.7202 609.926 81.6975C608.812 78.6748 607.096 76.2316 604.778 74.3679C602.46 72.5043 599.505 71.5725 595.914 71.5725C592.323 71.5725 589.369 72.5043 587.05 74.3679C584.732 76.2316 583.016 78.6748 581.903 81.6975C580.789 84.7202 580.232 87.9816 580.232 91.4816C580.232 94.9816 580.789 98.2316 581.903 101.232C583.016 104.232 584.732 106.652 587.05 108.493C589.369 110.334 592.323 111.254 595.914 111.254Z" fill="#FF9900"/>
<defs>
<linearGradient id="paint0_linear_1_6" x1="81.8715" y1="24.3907" x2="81.8715" y2="140.391" gradientUnits="userSpaceOnUse">
<stop offset="0.495" stop-color="#4333FF"/>
<stop offset="0.4951" stop-color="#FF3333"/>
</linearGradient>
</defs>
</svg>
