<svg width="40" height="40" viewBox="0 0 164 145" fill="none" xmlns="http://www.w3.org/2000/svg">
<path d="M82.744 0.391562L121.171 28.0927L160.472 54.66L144.668 97.971L130.268 141.723L82.0736 140.79L33.8724 141.263L19.8909 97.3752L4.50088 53.9152L44.0543 27.7245L82.744 0.391562Z" fill="#FF9900"/>
<path d="M97.0079 65.027C96.5988 61.5725 94.9397 58.8907 92.0306 56.9816C89.1215 55.0725 85.5533 54.118 81.3261 54.118C78.2352 54.118 75.5306 54.618 73.2124 55.618C70.917 56.618 69.1215 57.993 67.8261 59.743C66.5533 61.493 65.917 63.4816 65.917 65.7089C65.917 67.5725 66.3602 69.1748 67.2465 70.5157C68.1556 71.8339 69.3147 72.9361 70.7238 73.8225C72.1329 74.6861 73.6102 75.402 75.1556 75.9702C76.7011 76.5157 78.1215 76.9589 79.417 77.2998L86.5079 79.2089C88.3261 79.6861 90.3488 80.3452 92.5761 81.1861C94.8261 82.027 96.9738 83.1748 99.0193 84.6293C101.087 86.0611 102.792 87.902 104.133 90.152C105.474 92.402 106.144 95.1634 106.144 98.4361C106.144 102.209 105.156 105.618 103.178 108.663C101.224 111.709 98.3602 114.129 94.5874 115.925C90.8374 117.72 86.2806 118.618 80.917 118.618C75.917 118.618 71.5874 117.811 67.9283 116.198C64.292 114.584 61.4283 112.334 59.3374 109.448C57.2692 106.561 56.0988 103.209 55.8261 99.3907H64.5533C64.7806 102.027 65.667 104.209 67.2124 105.936C68.7806 107.641 70.7579 108.913 73.1442 109.754C75.5533 110.573 78.1442 110.982 80.917 110.982C84.1442 110.982 87.042 110.459 89.6102 109.413C92.1783 108.345 94.2124 106.868 95.7124 104.982C97.2124 103.073 97.9624 100.845 97.9624 98.2998C97.9624 95.9816 97.3147 94.0952 96.0193 92.6407C94.7238 91.1861 93.0192 90.0043 90.9056 89.0952C88.792 88.1861 86.5079 87.3907 84.0533 86.7089L75.4624 84.2543C70.0079 82.6861 65.6897 80.4475 62.5079 77.5384C59.3261 74.6293 57.7352 70.8225 57.7352 66.118C57.7352 62.2089 58.792 58.7998 60.9056 55.8907C63.042 52.9589 65.9056 50.6861 69.4965 49.0725C73.1102 47.4361 77.1442 46.618 81.5988 46.618C86.0988 46.618 90.0988 47.4248 93.5988 49.0384C97.0988 50.6293 99.8715 52.8111 101.917 55.5839C103.985 58.3566 105.076 61.5043 105.19 65.027H97.0079Z" fill="url(#paint0_linear_2_9)"/>
<defs>
<linearGradient id="paint0_linear_2_9" x1="81.8715" y1="24.3907" x2="81.8715" y2="140.391" gradientUnits="userSpaceOnUse">
<stop offset="0.495" stop-color="#4333FF"/>
<stop offset="0.4951" stop-color="#FF3333"/>
</linearGradient>
</defs>
</svg>
